:SAMPLES-PER-SECOND 30
:FULLY-SPECIFIED
:DEGREES
446
root  44.4666 36.2343 -0.727417 39.8947 72.3591 78.3634
RightUpLeg  22.1425 4.57524 -33.3083
RightLeg  41.0081 8.29459 7.39776
RightFoot  -25.722 -0.218506 -0.349767
RightToes  3.49245e-010 0 -3.6325e-017
Spine  49.1245 -7.72344 4.45944
Spine1  23.9874 -0.470589 -15.7533
HEad  -44.7997 -2.94593 -8.28041
LeftShoulder1  1.88928 -4.54291 -16.7756
LeftArm  -26.9586 -33.4561 -33.1255
LeftForeArm  2.67975 -65.0525 -25.2319
LeftHand  -0.035518 6.13421 -0.618408
RightShoulder  0.275693 -2.16944 14.0055
RightArm  -31.3298 30.6386 13.2463
RightForeArm  15.3923 76.5711 62.8738
RightHand  -0.45182 7.21373 -4.51727
LeftUpLeg  31.6119 14.0884 3.45478
LeftLeg  50.6034 1.78676 2.79552
LeftFoot  1.65656 0.733831 -6.49023
LeftToes  -5.36635e-011 -6.70219e-011 5.24975e-011
447
root  45.093 36.5575 -0.212327 34.7449 72.3945 73.9885
RightUpLeg  25.4891 6.08153 -30.6831
RightLeg  37.8971 7.51961 5.98357
RightFoot  -25.4478 -0.209195 -0.296744
RightToes  3.49245e-010 0 -3.6325e-017
Spine  51.0159 -5.37517 2.50308
Spine1  22.2857 -0.363862 -13.1897
HEad  -44.1521 -2.62703 -9.49413
LeftShoulder1  1.96031 -4.17837 -19.0237
LeftArm  -24.9159 -31.2523 -32.4878
LeftForeArm  3.46481 -65.6351 -25.9478
LeftHand  -0.0311173 5.74044 -1.13823
RightShoulder  0.24704 -2.34982 15.1162
RightArm  -27.8304 29.8837 15.7023
RightForeArm  21.4479 77.2208 69.6333
RightHand  -0.463348 5.69201 -5.17721
LeftUpLeg  28.7945 16.8722 5.52655
LeftLeg  48.5649 0.721039 1.33391
LeftFoot  -0.641886 0.552762 -5.89911
LeftToes  -5.36635e-011 -6.70219e-011 5.24975e-011
448
root  45.3936 36.7921 0.226311 36.0145 73.0464 72.0168
RightUpLeg  23.9496 4.84892 -28.3834
RightLeg  36.7878 6.08382 4.60819
RightFoot  -25.2266 -0.204432 -0.274125
RightToes  3.49245e-010 0 -3.6325e-017
Spine  50.8441 -3.54576 0.677491
Spine1  19.2011 -0.644841 -10.4585
HEad  -45.8137 -1.41926 -9.75859
LeftShoulder1  1.81919 -3.25086 -20.4822
LeftArm  -23.5136 -29.7583 -32.2356
LeftForeArm  4.73172 -66.5035 -27.0646
LeftHand  -0.0389453 6.04172 -0.672624
RightShoulder  0.165279 -2.79446 17.1751
RightArm  -24.9191 30.5531 17.4747
RightForeArm  23.0249 77.4179 73.1291
RightHand  -0.485626 4.69544 -5.865
LeftUpLeg  20.1388 19.061 5.16927
LeftLeg  45.7944 -0.194088 0.21962
LeftFoot  -2.29602 0.57381 -7.06007
LeftToes  -5.36635e-011 -6.70219e-011 5.24975e-011
449
root  45.428 36.8187 0.654067 40.9203 74.6682 71.8076
RightUpLeg  19.4355 2.42868 -25.3938
RightLeg  37.8824 3.75364 2.85387
RightFoot  -25.5322 -0.19898 -0.211978
RightToes  3.49245e-010 0 -3.6325e-017
Spine  52.134 -2.25875 -0.652334
Spine1  11.7938 -1.23002 -6.59535
HEad  -44.5595 -1.07638 -9.56091
LeftShoulder1  1.85712 -3.25761 -21.0576
LeftArm  -21.7374 -27.4196 -32.4254
LeftForeArm  6.7875 -67.3369 -28.1502
LeftHand  -0.036304 5.8086 -0.933894
RightShoulder  0.148875 -2.87116 18.3438
RightArm  -21.5932 28.8443 20.3765
RightForeArm  23.301 77.4218 73.1787
RightHand  -0.45105 4.92768 -5.36622
LeftUpLeg  8.33479 19.6259 2.96029
LeftLeg  41.6999 -0.559866 -0.1327
LeftFoot  -2.5497 0.656672 -8.33957
LeftToes  -5.36635e-011 -6.70219e-011 5.24975e-011
450
root  45.4651 36.5822 0.817444 47.3542 78.0058 69.7771
RightUpLeg  10.6465 -1.55245 -21.0257
RightLeg  40.9315 1.93297 1.51082
RightFoot  -26.5533 -0.146268 0.257604
RightToes  3.49245e-010 0 -3.6325e-017
Spine  50.9321 -2.63188 0.0308612
Spine1  4.29299 -2.10793 -3.01374
HEad  -44.5839 -0.0973825 -9.4798
LeftShoulder1  1.61719 -2.25335 -21.8485
LeftArm  -21.0894 -26.5709 -31.1858
LeftForeArm  8.35708 -68.3784 -29.7503
LeftHand  -0.0313146 5.51235 -0.5581
RightShoulder  -0.0109663 -3.5243 20.7252
RightArm  -18.9063 29.5674 22.6241
RightForeArm  18.145 77.0616 68.4948
RightHand  -0.483528 5.34116 -5.53338
LeftUpLeg  -7.08999 17.8523 0.398243
LeftLeg  36.6277 -0.408576 0.0346733
LeftFoot  -2.39333 0.766794 -9.60786
LeftToes  -5.36635e-011 -6.70219e-011 5.24975e-011
451
root  45.8584 36.0909 0.737274 55.7784 83.0592 67.2089
RightUpLeg  -0.644775 -7.07293 -15.5408
RightLeg  44.486 0.874914 0.603454
RightFoot  -28.0164 -0.0968066 0.624759
RightToes  3.49245e-010 0 -3.6325e-017
Spine  46.1534 -4.24574 3.81385
Spine1  -3.77007 -3.11055 0.0837584
HEad  -43.8394 0.737319 -10.1802
LeftShoulder1  1.39947 -1.00743 -24.7383
LeftArm  -19.5455 -27.2503 -28.483
LeftForeArm  7.90697 -68.4257 -29.9177
LeftHand  -0.0317712 5.39878 -1.08175
RightShoulder  0.012116 -3.43473 21.0973
RightArm  -16.7464 27.7729 25.1239
RightForeArm  18.0117 77.0517 68.4251
RightHand  -0.457353 5.10034 -5.36374
LeftUpLeg  -24.1661 12.864 -0.853218
LeftLeg  30.9199 0.555705 0.694442
LeftFoot  -0.711393 0.920433 -9.81057
LeftToes  -5.36635e-011 -6.70219e-011 5.24975e-011
452
root  46.5754 35.3894 0.559402 74.3144 87.7563 75.1456
RightUpLeg  -11.8127 -11.0434 -9.72526
RightLeg  47.9638 0.425138 0.161314
RightFoot  -30.385 0.0200189 1.35762
RightToes  3.49245e-010 0 -3.6325e-017
Spine  40.5976 -5.07157 8.2973
Spine1  -11.6557 -3.55578 1.91627
HEad  -42.6011 1.30114 -10.5703
LeftShoulder1  1.39351 -0.955935 -25.0465
LeftArm  -18.6325 -25.1282 -27.9202
LeftForeArm  9.5615 -69.316 -31.4544
LeftHand  -0.0300779 5.15019 -1.55603
RightShoulder  -0.0105598 -3.51292 21.8919
RightArm  -14.662 25.8302 27.0058
RightForeArm  18.639 77.0596 68.2657
RightHand  -0.477655 4.84664 -5.71671
LeftUpLeg  -38.6714 7.75772 0.502819
LeftLeg  24.6005 1.67472 1.17019
LeftFoot  0.867636 1.15482 -10.8331
LeftToes  -5.36635e-011 -6.70219e-011 5.24975e-011
453
root  47.6178 34.7246 0.329976 -66.5857 88.1997 -72.8568
RightUpLeg  -18.3389 -13.1142 -4.90752
RightLeg  49.9079 0.592058 0.379609
RightFoot  -32.6191 0.0773168 1.59417
RightToes  3.49245e-010 0 -3.6325e-017
Spine  35.2508 -5.28895 12.3539
Spine1  -15.7859 -3.78527 2.24807
HEad  -42.0967 2.20068 -10.6229
LeftShoulder1  1.37605 -0.922963 -24.8759
LeftArm  -18.1489 -23.1443 -27.284
LeftForeArm  11.9154 -70.5347 -33.8213
LeftHand  -0.0312597 4.99064 -1.02116
RightShoulder  -0.0635296 -3.69508 22.9608
RightArm  -12.7053 24.4688 28.3171
RightForeArm  17.7783 76.9222 66.4718
RightHand  -0.441153 5.5617 -4.97711
LeftUpLeg  -47.6255 4.84013 3.46217
LeftLeg  19.5542 2.30717 1.22554
LeftFoot  1.33325 1.285 -11.5205
LeftToes  -5.36635e-011 -6.70219e-011 5.24975e-011
